<svg width="1544" height="479" viewBox="0 0 1544 479" fill="none" xmlns="http://www.w3.org/2000/svg">
<g opacity="0.2">
<line x1="0.5" y1="0.422852" x2="0.499988" y2="239.249" stroke="#69813A"/>
<line x1="398.639" y1="0.422852" x2="398.639" y2="239.249" stroke="#69813A"/>
<line x1="199.568" y1="0.422852" x2="199.568" y2="239.249" stroke="#69813A"/>
<line x1="597.709" y1="0.422852" x2="597.709" y2="239.249" stroke="#69813A"/>
<line x1="100.035" y1="0.422852" x2="100.035" y2="239.249" stroke="#69813A"/>
<line x1="498.174" y1="0.422852" x2="498.174" y2="239.249" stroke="#69813A"/>
<line x1="299.104" y1="0.422852" x2="299.104" y2="239.249" stroke="#69813A"/>
<line x1="697.244" y1="0.422852" x2="697.244" y2="239.249" stroke="#69813A"/>
<line x1="50.2676" y1="0.422852" x2="50.2676" y2="239.249" stroke="#69813A"/>
<line x1="448.406" y1="0.422852" x2="448.406" y2="239.249" stroke="#69813A"/>
<line x1="249.336" y1="0.422852" x2="249.336" y2="239.249" stroke="#69813A"/>
<line x1="647.477" y1="0.422852" x2="647.477" y2="239.249" stroke="#69813A"/>
<line x1="149.803" y1="0.422852" x2="149.803" y2="239.249" stroke="#69813A"/>
<line x1="547.941" y1="0.422852" x2="547.941" y2="239.249" stroke="#69813A"/>
<line x1="348.871" y1="0.422852" x2="348.871" y2="239.249" stroke="#69813A"/>
<line x1="747.012" y1="0.422852" x2="747.012" y2="239.249" stroke="#69813A"/>
<line x1="25.3828" y1="0.422852" x2="25.3828" y2="239.249" stroke="#69813A"/>
<line x1="423.523" y1="0.422852" x2="423.523" y2="239.249" stroke="#69813A"/>
<line x1="224.453" y1="0.422852" x2="224.453" y2="239.249" stroke="#69813A"/>
<line x1="622.592" y1="0.422852" x2="622.592" y2="239.249" stroke="#69813A"/>
<line x1="124.918" y1="0.422852" x2="124.918" y2="239.249" stroke="#69813A"/>
<line x1="523.059" y1="0.422852" x2="523.059" y2="239.249" stroke="#69813A"/>
<line x1="323.988" y1="0.422852" x2="323.988" y2="239.249" stroke="#69813A"/>
<line x1="722.127" y1="0.422852" x2="722.127" y2="239.249" stroke="#69813A"/>
<line x1="75.1504" y1="0.422852" x2="75.1504" y2="239.249" stroke="#69813A"/>
<line x1="473.291" y1="0.422852" x2="473.291" y2="239.249" stroke="#69813A"/>
<line x1="274.221" y1="0.422852" x2="274.221" y2="239.249" stroke="#69813A"/>
<line x1="672.359" y1="0.422852" x2="672.359" y2="239.249" stroke="#69813A"/>
<line x1="174.686" y1="0.422852" x2="174.686" y2="239.249" stroke="#69813A"/>
<line x1="572.826" y1="0.422852" x2="572.826" y2="239.249" stroke="#69813A"/>
<line x1="373.756" y1="0.422852" x2="373.756" y2="239.249" stroke="#69813A"/>
<line x1="771.613" y1="0.642578" x2="0.281067" y2="0.642515" stroke="#69813A"/>
<line x1="771.613" y1="159.7" x2="0.281067" y2="159.7" stroke="#69813A"/>
<line x1="771.613" y1="80.1709" x2="0.281067" y2="80.1708" stroke="#69813A"/>
<line x1="771.613" y1="40.4072" x2="0.281067" y2="40.4072" stroke="#69813A"/>
<line x1="771.613" y1="199.464" x2="0.281067" y2="199.464" stroke="#69813A"/>
<line x1="771.613" y1="119.937" x2="0.281067" y2="119.936" stroke="#69813A"/>
<line x1="771.613" y1="20.5244" x2="0.281067" y2="20.5244" stroke="#69813A"/>
<line x1="771.613" y1="179.582" x2="0.281067" y2="179.582" stroke="#69813A"/>
<line x1="771.613" y1="100.054" x2="0.281067" y2="100.054" stroke="#69813A"/>
<line x1="771.613" y1="60.2891" x2="0.281067" y2="60.289" stroke="#69813A"/>
<line x1="771.613" y1="219.347" x2="0.281067" y2="219.347" stroke="#69813A"/>
<line x1="771.613" y1="139.817" x2="0.281067" y2="139.817" stroke="#69813A"/>
<line x1="772.113" y1="0.422852" x2="772.113" y2="239.249" stroke="#69813A"/>
<line x1="1170.25" y1="0.422852" x2="1170.25" y2="239.249" stroke="#69813A"/>
<line x1="971.182" y1="0.422852" x2="971.182" y2="239.249" stroke="#69813A"/>
<line x1="1369.32" y1="0.422852" x2="1369.32" y2="239.249" stroke="#69813A"/>
<line x1="871.648" y1="0.422852" x2="871.648" y2="239.249" stroke="#69813A"/>
<line x1="1269.79" y1="0.422852" x2="1269.79" y2="239.249" stroke="#69813A"/>
<line x1="1070.72" y1="0.422852" x2="1070.72" y2="239.249" stroke="#69813A"/>
<line x1="1468.86" y1="0.422852" x2="1468.86" y2="239.249" stroke="#69813A"/>
<line x1="821.881" y1="0.422852" x2="821.881" y2="239.249" stroke="#69813A"/>
<line x1="1220.02" y1="0.422852" x2="1220.02" y2="239.249" stroke="#69813A"/>
<line x1="1020.95" y1="0.422852" x2="1020.95" y2="239.249" stroke="#69813A"/>
<line x1="1419.09" y1="0.422852" x2="1419.09" y2="239.249" stroke="#69813A"/>
<line x1="921.416" y1="0.422852" x2="921.416" y2="239.249" stroke="#69813A"/>
<line x1="1319.55" y1="0.422852" x2="1319.55" y2="239.249" stroke="#69813A"/>
<line x1="1120.48" y1="0.422852" x2="1120.48" y2="239.249" stroke="#69813A"/>
<line x1="1518.62" y1="0.422852" x2="1518.62" y2="239.249" stroke="#69813A"/>
<line x1="796.996" y1="0.422852" x2="796.996" y2="239.249" stroke="#69813A"/>
<line x1="1195.14" y1="0.422852" x2="1195.14" y2="239.249" stroke="#69813A"/>
<line x1="996.066" y1="0.422852" x2="996.066" y2="239.249" stroke="#69813A"/>
<line x1="1394.21" y1="0.422852" x2="1394.21" y2="239.249" stroke="#69813A"/>
<line x1="896.531" y1="0.422852" x2="896.531" y2="239.249" stroke="#69813A"/>
<line x1="1294.67" y1="0.422852" x2="1294.67" y2="239.249" stroke="#69813A"/>
<line x1="1095.6" y1="0.422852" x2="1095.6" y2="239.249" stroke="#69813A"/>
<line x1="1493.74" y1="0.422852" x2="1493.74" y2="239.249" stroke="#69813A"/>
<line x1="846.764" y1="0.422852" x2="846.764" y2="239.249" stroke="#69813A"/>
<line x1="1244.9" y1="0.422852" x2="1244.9" y2="239.249" stroke="#69813A"/>
<line x1="1045.83" y1="0.422852" x2="1045.83" y2="239.249" stroke="#69813A"/>
<line x1="1443.97" y1="0.422852" x2="1443.97" y2="239.249" stroke="#69813A"/>
<line x1="946.299" y1="0.422852" x2="946.299" y2="239.249" stroke="#69813A"/>
<line x1="1344.44" y1="0.422852" x2="1344.44" y2="239.249" stroke="#69813A"/>
<line x1="1145.37" y1="0.422852" x2="1145.37" y2="239.249" stroke="#69813A"/>
<line x1="1543.23" y1="0.642578" x2="771.894" y2="0.642515" stroke="#69813A"/>
<line x1="1543.23" y1="159.7" x2="771.894" y2="159.7" stroke="#69813A"/>
<line x1="1543.23" y1="80.1709" x2="771.894" y2="80.1708" stroke="#69813A"/>
<line x1="1543.23" y1="40.4072" x2="771.894" y2="40.4072" stroke="#69813A"/>
<line x1="1543.23" y1="199.464" x2="771.894" y2="199.464" stroke="#69813A"/>
<line x1="1543.23" y1="119.937" x2="771.894" y2="119.936" stroke="#69813A"/>
<line x1="1543.23" y1="20.5244" x2="771.894" y2="20.5244" stroke="#69813A"/>
<line x1="1543.23" y1="179.582" x2="771.894" y2="179.582" stroke="#69813A"/>
<line x1="1543.23" y1="100.054" x2="771.894" y2="100.054" stroke="#69813A"/>
<line x1="1543.23" y1="60.2891" x2="771.894" y2="60.289" stroke="#69813A"/>
<line x1="1543.23" y1="219.347" x2="771.894" y2="219.347" stroke="#69813A"/>
<line x1="1543.23" y1="139.817" x2="771.894" y2="139.817" stroke="#69813A"/>
<line x1="0.5" y1="239.248" x2="0.499988" y2="478.074" stroke="#69813A"/>
<line x1="398.639" y1="239.248" x2="398.639" y2="478.074" stroke="#69813A"/>
<line x1="199.568" y1="239.248" x2="199.568" y2="478.074" stroke="#69813A"/>
<line x1="597.709" y1="239.248" x2="597.709" y2="478.074" stroke="#69813A"/>
<line x1="100.035" y1="239.248" x2="100.035" y2="478.074" stroke="#69813A"/>
<line x1="498.174" y1="239.248" x2="498.174" y2="478.074" stroke="#69813A"/>
<line x1="299.104" y1="239.248" x2="299.104" y2="478.074" stroke="#69813A"/>
<line x1="697.244" y1="239.248" x2="697.244" y2="478.074" stroke="#69813A"/>
<line x1="50.2676" y1="239.248" x2="50.2676" y2="478.074" stroke="#69813A"/>
<line x1="448.406" y1="239.248" x2="448.406" y2="478.074" stroke="#69813A"/>
<line x1="249.336" y1="239.248" x2="249.336" y2="478.074" stroke="#69813A"/>
<line x1="647.477" y1="239.248" x2="647.477" y2="478.074" stroke="#69813A"/>
<line x1="149.803" y1="239.248" x2="149.803" y2="478.074" stroke="#69813A"/>
<line x1="547.941" y1="239.248" x2="547.941" y2="478.074" stroke="#69813A"/>
<line x1="348.871" y1="239.248" x2="348.871" y2="478.074" stroke="#69813A"/>
<line x1="747.012" y1="239.248" x2="747.012" y2="478.074" stroke="#69813A"/>
<line x1="25.3828" y1="239.248" x2="25.3828" y2="478.074" stroke="#69813A"/>
<line x1="423.523" y1="239.248" x2="423.523" y2="478.074" stroke="#69813A"/>
<line x1="224.453" y1="239.248" x2="224.453" y2="478.074" stroke="#69813A"/>
<line x1="622.592" y1="239.248" x2="622.592" y2="478.074" stroke="#69813A"/>
<line x1="124.918" y1="239.248" x2="124.918" y2="478.074" stroke="#69813A"/>
<line x1="523.059" y1="239.248" x2="523.059" y2="478.074" stroke="#69813A"/>
<line x1="323.988" y1="239.248" x2="323.988" y2="478.074" stroke="#69813A"/>
<line x1="722.127" y1="239.248" x2="722.127" y2="478.074" stroke="#69813A"/>
<line x1="75.1504" y1="239.248" x2="75.1504" y2="478.074" stroke="#69813A"/>
<line x1="473.291" y1="239.248" x2="473.291" y2="478.074" stroke="#69813A"/>
<line x1="274.221" y1="239.248" x2="274.221" y2="478.074" stroke="#69813A"/>
<line x1="672.359" y1="239.248" x2="672.359" y2="478.074" stroke="#69813A"/>
<line x1="174.686" y1="239.248" x2="174.686" y2="478.074" stroke="#69813A"/>
<line x1="572.826" y1="239.248" x2="572.826" y2="478.074" stroke="#69813A"/>
<line x1="373.756" y1="239.248" x2="373.756" y2="478.074" stroke="#69813A"/>
<line x1="771.613" y1="239.469" x2="0.281067" y2="239.469" stroke="#69813A"/>
<line x1="771.613" y1="398.526" x2="0.281067" y2="398.526" stroke="#69813A"/>
<line x1="771.613" y1="318.997" x2="0.281067" y2="318.997" stroke="#69813A"/>
<line x1="771.613" y1="279.233" x2="0.281067" y2="279.233" stroke="#69813A"/>
<line x1="771.613" y1="438.291" x2="0.281067" y2="438.291" stroke="#69813A"/>
<line x1="771.613" y1="358.762" x2="0.281067" y2="358.762" stroke="#69813A"/>
<line x1="771.613" y1="259.352" x2="0.281067" y2="259.352" stroke="#69813A"/>
<line x1="771.613" y1="418.409" x2="0.281067" y2="418.409" stroke="#69813A"/>
<line x1="771.613" y1="338.88" x2="0.281067" y2="338.88" stroke="#69813A"/>
<line x1="771.613" y1="299.115" x2="0.281067" y2="299.115" stroke="#69813A"/>
<line x1="771.613" y1="458.173" x2="0.281067" y2="458.173" stroke="#69813A"/>
<line x1="771.613" y1="378.645" x2="0.281067" y2="378.644" stroke="#69813A"/>
<line x1="772.113" y1="239.248" x2="772.113" y2="478.074" stroke="#69813A"/>
<line x1="1170.25" y1="239.248" x2="1170.25" y2="478.074" stroke="#69813A"/>
<line x1="971.182" y1="239.248" x2="971.182" y2="478.074" stroke="#69813A"/>
<line x1="1369.32" y1="239.248" x2="1369.32" y2="478.074" stroke="#69813A"/>
<line x1="871.648" y1="239.248" x2="871.648" y2="478.074" stroke="#69813A"/>
<line x1="1269.79" y1="239.248" x2="1269.79" y2="478.074" stroke="#69813A"/>
<line x1="1070.72" y1="239.248" x2="1070.72" y2="478.074" stroke="#69813A"/>
<line x1="1468.86" y1="239.248" x2="1468.86" y2="478.074" stroke="#69813A"/>
<line x1="821.881" y1="239.248" x2="821.881" y2="478.074" stroke="#69813A"/>
<line x1="1220.02" y1="239.248" x2="1220.02" y2="478.074" stroke="#69813A"/>
<line x1="1020.95" y1="239.248" x2="1020.95" y2="478.074" stroke="#69813A"/>
<line x1="1419.09" y1="239.248" x2="1419.09" y2="478.074" stroke="#69813A"/>
<line x1="921.416" y1="239.248" x2="921.416" y2="478.074" stroke="#69813A"/>
<line x1="1319.55" y1="239.248" x2="1319.55" y2="478.074" stroke="#69813A"/>
<line x1="1120.48" y1="239.248" x2="1120.48" y2="478.074" stroke="#69813A"/>
<line x1="1518.62" y1="239.248" x2="1518.62" y2="478.074" stroke="#69813A"/>
<line x1="796.996" y1="239.248" x2="796.996" y2="478.074" stroke="#69813A"/>
<line x1="1195.14" y1="239.248" x2="1195.14" y2="478.074" stroke="#69813A"/>
<line x1="996.066" y1="239.248" x2="996.066" y2="478.074" stroke="#69813A"/>
<line x1="1394.21" y1="239.248" x2="1394.21" y2="478.074" stroke="#69813A"/>
<line x1="896.531" y1="239.248" x2="896.531" y2="478.074" stroke="#69813A"/>
<line x1="1294.67" y1="239.248" x2="1294.67" y2="478.074" stroke="#69813A"/>
<line x1="1095.6" y1="239.248" x2="1095.6" y2="478.074" stroke="#69813A"/>
<line x1="1493.74" y1="239.248" x2="1493.74" y2="478.074" stroke="#69813A"/>
<line x1="846.764" y1="239.248" x2="846.764" y2="478.074" stroke="#69813A"/>
<line x1="1244.9" y1="239.248" x2="1244.9" y2="478.074" stroke="#69813A"/>
<line x1="1045.83" y1="239.248" x2="1045.83" y2="478.074" stroke="#69813A"/>
<line x1="1443.97" y1="239.248" x2="1443.97" y2="478.074" stroke="#69813A"/>
<line x1="946.299" y1="239.248" x2="946.299" y2="478.074" stroke="#69813A"/>
<line x1="1344.44" y1="239.248" x2="1344.44" y2="478.074" stroke="#69813A"/>
<line x1="1145.37" y1="239.248" x2="1145.37" y2="478.074" stroke="#69813A"/>
<line x1="1543.23" y1="239.469" x2="771.894" y2="239.469" stroke="#69813A"/>
<line x1="1543.23" y1="398.526" x2="771.894" y2="398.526" stroke="#69813A"/>
<line x1="1543.23" y1="318.997" x2="771.894" y2="318.997" stroke="#69813A"/>
<line x1="1543.23" y1="279.233" x2="771.894" y2="279.233" stroke="#69813A"/>
<line x1="1543.23" y1="438.291" x2="771.894" y2="438.291" stroke="#69813A"/>
<line x1="1543.23" y1="358.762" x2="771.894" y2="358.762" stroke="#69813A"/>
<line x1="1543.23" y1="259.352" x2="771.894" y2="259.352" stroke="#69813A"/>
<line x1="1543.23" y1="418.409" x2="771.894" y2="418.409" stroke="#69813A"/>
<line x1="1543.23" y1="338.88" x2="771.894" y2="338.88" stroke="#69813A"/>
<line x1="1543.23" y1="299.115" x2="771.894" y2="299.115" stroke="#69813A"/>
<line x1="1543.23" y1="458.173" x2="771.894" y2="458.173" stroke="#69813A"/>
<line x1="1543.23" y1="378.645" x2="771.894" y2="378.644" stroke="#69813A"/>
</g>
</svg>
