<svg width="86" height="10" viewBox="0 0 86 10" fill="none" xmlns="http://www.w3.org/2000/svg">
<path d="M20.0714 0L21.5977 2.92892L24.8946 3.45491L22.5409 5.79108L23.0523 9.04508L20.0714 7.56L17.0905 9.04508L17.6019 5.79108L15.2482 3.45491L18.5452 2.92892L20.0714 0Z" fill="#DFA041"/>
<path d="M35.2857 0L36.8119 2.92892L40.1089 3.45491L37.7552 5.79108L38.2666 9.04508L35.2857 7.56L32.3048 9.04508L32.8162 5.79108L30.4625 3.45491L33.7595 2.92892L35.2857 0Z" fill="#DFA041"/>
<path d="M50.5 0L52.0262 2.92892L55.3232 3.45491L52.9695 5.79108L53.4809 9.04508L50.5 7.56L47.5191 9.04508L48.0305 5.79108L45.6768 3.45491L48.9738 2.92892L50.5 0Z" fill="#DFA041"/>
<path d="M65.7143 0L67.2405 2.92892L70.5375 3.45491L68.1838 5.79108L68.6952 9.04508L65.7143 7.56L62.7334 9.04508L63.2448 5.79108L60.8911 3.45491L64.1881 2.92892L65.7143 0Z" fill="#DFA041"/>
<path d="M80.9286 0L82.4548 2.92892L85.7518 3.45491L83.3981 5.79108L83.9095 9.04508L80.9286 7.56L77.9477 9.04508L78.4591 5.79108L76.1054 3.45491L79.4023 2.92892L80.9286 0Z" fill="#DFA041"/>
<g clip-path="url(#clip0_2_2)">
<path d="M9.90251 5.11517C9.90251 4.77529 9.87495 4.43356 9.81616 4.09919H5.1V6.0246H7.80072C7.68865 6.64558 7.32855 7.19491 6.80127 7.54398V8.79329H8.41252C9.35869 7.92245 9.90251 6.63639 9.90251 5.11517Z" fill="#4285F4"/>
<path d="M5.09999 10.0003C6.44851 10.0003 7.58575 9.55758 8.41434 8.79329L6.8031 7.54398C6.35481 7.84896 5.77609 8.02166 5.10183 8.02166C3.7974 8.02166 2.69139 7.14163 2.29455 5.95846H0.631866V7.24635C1.48066 8.93476 3.20949 10.0003 5.09999 10.0003Z" fill="#34A853"/>
<path d="M2.29273 5.95846C2.08329 5.33748 2.08329 4.66505 2.29273 4.04407V2.75618H0.631882C-0.0772858 4.169 -0.0772858 5.83353 0.631882 7.24635L2.29273 5.95846Z" fill="#FBBC04"/>
<path d="M5.09999 1.97903C5.81283 1.968 6.50179 2.23624 7.01805 2.72861L8.44557 1.30109C7.54166 0.452294 6.34195 -0.0143608 5.09999 0.000336944C3.20949 0.000336944 1.48066 1.06593 0.631866 2.75617L2.29272 4.04406C2.68772 2.85905 3.79556 1.97903 5.09999 1.97903Z" fill="#EA4335"/>
</g>
<defs>
<clipPath id="clip0_2_2">
<rect width="10" height="10" fill="white"/>
</clipPath>
</defs>
</svg>
